<?xml version="1.0" encoding="UTF-8" standalone="no"?>
<!DOCTYPE svg PUBLIC "-//W3C//DTD SVG 1.1//EN" "http://www.w3.org/Graphics/SVG/1.1/DTD/svg11.dtd">
<!-- Created with Vectornator (http://vectornator.io/) -->
<svg height="100%" stroke-miterlimit="10" style="fill-rule:nonzero;clip-rule:evenodd;stroke-linecap:round;stroke-linejoin:round;" version="1.1" viewBox="0 0 1024 1024" width="100%" xml:space="preserve" xmlns="http://www.w3.org/2000/svg" xmlns:vectornator="http://vectornator.io" xmlns:xlink="http://www.w3.org/1999/xlink">
<defs/>
<g id="Layer-1" vectornator:layerName="Layer 1">
<path d="M141.042 477.149L196.729 401.717L197.733 475.34" fill="#68a9d4" fill-rule="evenodd" opacity="1" stroke="none"/>
<path d="M204.16 398.382L327.996 377.007L203.099 462.394" fill="#5298c5" fill-rule="evenodd" opacity="1" stroke="none"/>
<path d="M139.21 486.678L200.365 482.458L148.16 522.025" fill="#81aac5" fill-rule="evenodd" opacity="1" stroke="none"/>
<path d="M200.866 499.027L227.845 455.142L278.534 453.313L249.92 501.77" fill="#a081c5" fill-rule="evenodd" opacity="1" stroke="none"/>
<path d="M154.415 530.387L192.762 559.547L256.195 508.367L193.96 506.651" fill="#83a2b5" fill-rule="evenodd" opacity="1" stroke="none"/>
<path d="M11.0108 710.328C11.0108 709.414 11.0108 708.499 11.0108 707.585" fill="#9d9660" fill-rule="evenodd" opacity="1" stroke="none"/>
<path d="M140.935 533.769L178.092 568.511L29.463 662.68L140.935 533.769Z" fill="#cac17a" fill-rule="evenodd" opacity="1" stroke="none"/>
<path d="M29.1902 426.942L60.328 617.883L126.714 749.611L141.537 742.801L152.273 729.439L99.9739 575.558" fill="#636363" fill-rule="evenodd" opacity="1" stroke="none"/>
<path d="M18.962 676.394L196.373 571.095L198.759 600.287" fill="#9d9660" fill-rule="evenodd" opacity="1" stroke="none"/>
<path d="M128.248 751.788L140.733 745.917L160.336 792.252L136.232 768.832" fill="#c2c2c2" fill-rule="evenodd" opacity="1" stroke="none"/>
<path d="M143.764 743.077L153.13 733.51L163.036 753.817L162.23 791.768" fill="#8c8c8c" fill-rule="evenodd" opacity="1" stroke="none"/>
<path d="M296.595 316.913L329.735 295.682L380.607 401.818" fill="#8d98be" fill-rule="evenodd" opacity="1" stroke="none"/>
<path d="M340.005 295.708L373.893 284.939L388.835 404.508" fill="#7f8db8" fill-rule="evenodd" opacity="1" stroke="none"/>
<path d="M386.816 281.628L442.36 275.8L397.593 407.446" fill="#7081b7" fill-rule="evenodd" opacity="1" stroke="none"/>
<path d="M335.944 380.311L460.549 453.845L450.982 456.855L246.207 444.99" fill="#3e81ad" fill-rule="evenodd" opacity="1" stroke="none"/>
<path d="M287.429 456.468L456.229 461.329L446.354 470.09L262.699 500.16" fill="#4281aa" fill-rule="evenodd" opacity="1" stroke="none"/>
<path d="M622.054 372.929L598.458 329.229L458.055 464.781" fill="#51577b" fill-rule="evenodd" opacity="1" stroke="none"/>
<path d="M603.501 323.374L668.375 238.939L678.776 270.603L685.379 315.846L683.24 364.753L627.961 370.542L603.501 323.374Z" fill="#51598e" fill-rule="evenodd" opacity="1" stroke="none"/>
<path d="M293.573 312.561L326.632 291.183L272.3 132.029L230.742 219.596" fill="#595f82" fill-rule="evenodd" opacity="1" stroke="none"/>
<path d="M338.967 289.795L284.377 120.127L330.522 76.7656L372.687 279.061" fill="#51577b" fill-rule="evenodd" opacity="1" stroke="none"/>
<path d="M385.461 275.649L351.05 67.6664L422.207 39.0724L442.374 271.011" fill="#484f7b" fill-rule="evenodd" opacity="1" stroke="none"/>
<path d="M264.455 511.722L455.945 475.39L460.44 486.702L269.57 581.065L213.885 593.023L202.392 569.446" fill="#5486a5" fill-rule="evenodd" opacity="1" stroke="none"/>
<path d="M281.963 587.073L308.83 643.671L375.635 536.275" fill="#556c91" fill-rule="evenodd" opacity="1" stroke="none"/>
<path d="M388.565 532.574L461.723 495.339L468.582 519.857L456.05 566.531L313.764 656.012" fill="#8ebcda" fill-rule="evenodd" opacity="1" stroke="none"/>
<path d="M318.101 661.573L361.774 746.815L456.333 627.53L457.029 578.893" fill="#8bb0c7" fill-rule="evenodd" opacity="1" stroke="none"/>
<path d="M464.045 472.335L626.322 385.04L652.774 450.693L468.179 482.948" fill="#576a91" fill-rule="evenodd" opacity="1" stroke="none"/>
<path d="M472.626 486.462L657.548 463.463L641.87 518.787L478.596 511.938" fill="#43719f" fill-rule="evenodd" opacity="1" stroke="none"/>
<path d="M673.043 232.6L803.044 57.4189L876.47 82.8839" fill="#504da5" fill-rule="evenodd" opacity="1" stroke="none"/>
<path d="M676.204 238.513C730.968 202.029 889.262 94.4874 889.262 94.4874L924.309 148.261C924.309 148.261 744.189 236.188 685.889 260.957" fill="#5a589f" fill-rule="evenodd" opacity="1" stroke="none"/>
<path d="M687.732 269.824L932.56 164.673L936.521 269.862L692.769 308.932" fill="#58639f" fill-rule="evenodd" opacity="1" stroke="none"/>
<path d="M694.064 323.782L939.702 290.407L941.096 367.635L693.739 366.502" fill="#586e9f" fill-rule="evenodd" opacity="1" stroke="none"/>
<path d="M327.23 700.33L266.53 819.309L299.519 833.01L354.417 751.473" fill="#5f737f" fill-rule="evenodd" opacity="1" stroke="none"/>
<path d="M419.319 761.835L487.018 759.858" fill="#3a83b2" fill-rule="evenodd" opacity="1" stroke="none"/>
<path d="M404.619 750.92L458.549 743.852L416.153 851.551L385.894 841.014" fill="#5f737f" fill-rule="evenodd" opacity="1" stroke="none"/>
<path d="M264.238 829.149L293.884 840.24L224.876 926.455" fill="#193547" fill-rule="evenodd" opacity="1" stroke="none"/>
<path d="M385.11 849.586L413.041 859.3L375.95 939.029" fill="#193547" fill-rule="evenodd" opacity="1" stroke="none"/>
<path d="M290.852 862.192L240.34 931.476" fill="#193547" fill-rule="evenodd" opacity="1" stroke="none"/>
<path d="M245.884 931.476L303.172 857.616" fill="#193547" fill-rule="evenodd" opacity="1" stroke="none"/>
<path d="M313.028 864.806L296.396 859.577" fill="#193547" fill-rule="evenodd" opacity="1" stroke="none"/>
<path d="M401.382 932.152L406.996 906.621" fill="#193547" fill-rule="evenodd" opacity="1" stroke="none"/>
<path d="M228.096 906.186L241.761 874.083L213.002 896.57" fill="#193547" fill-rule="evenodd" opacity="1" stroke="none"/>
<path d="M239.215 913.625L263.639 885.767L256.753 919.583" fill="#193547" fill-rule="evenodd" opacity="1" stroke="none"/>
<path d="M377.398 892.595L372.993 923.477L358.047 913.383" fill="#193547" fill-rule="evenodd" opacity="1" stroke="none"/>
<path d="M386.678 926.182L400.591 898.041L401.623 928.572" fill="#193547" fill-rule="evenodd" opacity="1" stroke="none"/>
<path d="M477.493 524.661L640.389 529.032L462.466 622.61L464.925 571.518" fill="#577ea4" fill-rule="evenodd" opacity="1" stroke="none"/>
<path d="M399.286 711.431L463.732 630.335L642.522 538.959L488.683 663.035" fill="#618eab" fill-rule="evenodd" opacity="1" stroke="none"/>
<path d="M373.848 749.498L394.241 723.651L493.93 672.924L471.434 733.699" fill="#567e9a" fill-rule="evenodd" opacity="1" stroke="none"/>
<path d="M632.434 382.967L681.489 374.423L660.424 450.233L632.434 382.967Z" fill="#4d5e8a" fill-rule="evenodd" opacity="1" stroke="none"/>
<path d="M693.177 378.54L937.229 388.852L908.303 495.457L668.708 454.321" fill="#587c9f" fill-rule="evenodd" opacity="1" stroke="none"/>
<path d="M406.262 411.195L449.28 278.581L486.384 316.639" fill="#5c70ac" fill-rule="evenodd" opacity="1" stroke="none"/>
<path d="M451.576 272.066L433.996 36.4652L502.622 147.974L491.431 310.685" fill="#454c77" fill-rule="evenodd" opacity="1" stroke="none"/>
<path d="M413.107 414.241L491.113 329.728L499.99 369.076L423.26 421.664" fill="#4d63a7" fill-rule="evenodd" opacity="1" stroke="none"/>
<path d="M497.628 321.553L510.258 164.647L529.182 312.196L505.144 365.937" fill="#2f3559" fill-rule="evenodd" opacity="1" stroke="none"/>
<path d="M667.235 467.16L898.362 511.52L773.537 640.511L649.229 529.084" fill="#4f83a7" fill-rule="evenodd" opacity="1" stroke="none"/>
<path d="M483.592 729.369L501.888 682.581L703.49 662.413L695.059 718.445L519.3 737.558" fill="#4d8bb6" fill-rule="evenodd" opacity="1" stroke="none"/>
<path d="M714.732 661.892L769.902 655.694L1004.52 704.293L915.301 766.247L712.81 719.603" fill="#46689f" fill-rule="evenodd" opacity="1" stroke="none"/>
<path d="M698.507 731.022C746.717 745.595 896.164 787.136 896.164 787.136L815.283 846.85L660.32 733.789" fill="#4c6896" fill-rule="evenodd" opacity="1" stroke="none"/>
<path d="M644.471 737.404L792.809 859.274L670.346 845.96L602.953 741.474" fill="#647a9d" fill-rule="evenodd" opacity="1" stroke="none"/>
<path d="M533.436 749.393L584.565 744.443L651.384 843.652" fill="#6f84a5" fill-rule="evenodd" opacity="1" stroke="none"/>
<path d="M503.675 373.019L431.038 425.868L462.596 448.401L490.918 416.371" fill="#465890" fill-rule="evenodd" opacity="1" stroke="none"/>
<path d="M529.091 371.191L533.253 328.47L513.362 370.226L500.313 410.716" fill="#232849" fill-rule="evenodd" opacity="1" stroke="none"/>
<path d="M504.197 667.79L646.998 550.654L757.114 643.619" fill="#4f7da7" fill-rule="evenodd" opacity="1" stroke="none"/>
</g>
</svg>
